HIERARCHY
ROOT hip
{
  OFFSET 0 0 0
  CHANNELS 6 Xposition Yposition Zposition Zrotation Yrotation Xrotation
  JOINT abdomen
  {
    OFFSET 0 20.6881 -0.73152
    CHANNELS 3 Zrotation Xrotation Yrotation
    JOINT chest
    {
      OFFSET 0 11.7043 -0.48768
      CHANNELS 3 Zrotation Xrotation Yrotation
      JOINT neck
      {
        OFFSET 0 22.1894 -2.19456
        CHANNELS 3 Zrotation Xrotation Yrotation
        JOINT head
        {
          OFFSET -0.24384 7.07133 1.2192
          CHANNELS 3 Zrotation Xrotation Yrotation
          JOINT leftEye
          {
            OFFSET 4.14528 8.04674 8.04672
            CHANNELS 3 Zrotation Xrotation Yrotation
            End Site
            {
              OFFSET 1 0 0
            }
          }
          JOINT rightEye
          {
            OFFSET -3.6576 8.04674 8.04672
            CHANNELS 3 Zrotation Xrotation Yrotation
            End Site
            {
              OFFSET 1 0 0
            }
          }
        }
      }
      JOINT rCollar
      {
        OFFSET -2.68224 19.2634 -4.8768
        CHANNELS 3 Zrotation Xrotation Yrotation
        JOINT rShldr
        {
          OFFSET -8.77824 -1.95073 1.46304
          CHANNELS 3 Zrotation Xrotation Yrotation
          JOINT rForeArm
          {
            OFFSET -28.1742 -1.7115 0.48768
            CHANNELS 3 Zrotation Xrotation Yrotation
            JOINT rHand
            {
              OFFSET -22.5879 0.773209 7.07136
              CHANNELS 3 Zrotation Xrotation Yrotation
              JOINT rThumb1
              {
                OFFSET -1.2192 -0.487915 3.41376
                CHANNELS 3 Zrotation Xrotation Yrotation
                JOINT rThumb2
                {
                  OFFSET -3.37035 -0.52449 3.41376
                  CHANNELS 3 Zrotation Xrotation Yrotation
                  End Site
                  {
                    OFFSET -1.78271 -1.18214 1.43049
                  }
                }
              }
              JOINT rIndex1
              {
                OFFSET -7.75947 0.938293 5.60832
                CHANNELS 3 Zrotation Xrotation Yrotation
                JOINT rIndex2
                {
                  OFFSET -2.54057 -0.884171 1.56538
                  CHANNELS 3 Zrotation Xrotation Yrotation
                  End Site
                  {
                    OFFSET -1.62519 -0.234802 1.16502
                  }
                }
              }
              JOINT rMid1
              {
                OFFSET -8.24714 1.18213 3.41376
                CHANNELS 3 Zrotation Xrotation Yrotation
                JOINT rMid2
                {
                  OFFSET -3.10165 -0.590103 1.0647
                  CHANNELS 3 Zrotation Xrotation Yrotation
                  End Site
                  {
                    OFFSET -2.48547 -0.328903 0.83742
                  }
                }
              }
              JOINT rRing1
              {
                OFFSET -8.82822 0.546677 1.51678
                CHANNELS 3 Zrotation Xrotation Yrotation
                JOINT rRing2
                {
                  OFFSET -2.60934 -0.819778 -0.0198488
                  CHANNELS 3 Zrotation Xrotation Yrotation
                  End Site
                  {
                    OFFSET -2.33842 -0.294052 0.168128
                  }
                }
              }
              JOINT rPinky1
              {
                OFFSET -8.27202 -0.0477905 -0.4584
                CHANNELS 3 Zrotation Xrotation Yrotation
                JOINT rPinky2
                {
                  OFFSET -1.82734 -0.647385 -0.700984
                  CHANNELS 3 Zrotation Xrotation Yrotation
                  End Site
                  {
                    OFFSET -1.69225 -0.51767 -0.607171
                  }
                }
              }
            }
          }
        }
      }
      JOINT lCollar
      {
        OFFSET 2.68224 19.2634 -4.8768
        CHANNELS 3 Zrotation Xrotation Yrotation
        JOINT lShldr
        {
          OFFSET 8.77824 -1.95073 1.46304
          CHANNELS 3 Zrotation Xrotation Yrotation
          JOINT lForeArm
          {
            OFFSET 28.1742 -1.7115 0.48768
            CHANNELS 3 Zrotation Xrotation Yrotation
            JOINT lHand
            {
              OFFSET 22.5879 0.773209 7.07136
              CHANNELS 3 Zrotation Xrotation Yrotation
              JOINT lThumb1
              {
                OFFSET 1.2192 -0.487915 3.41376
                CHANNELS 3 Zrotation Xrotation Yrotation
                JOINT lThumb2
                {
                  OFFSET 3.37035 -0.52449 3.41376
                  CHANNELS 3 Zrotation Xrotation Yrotation
                  End Site
                  {
                    OFFSET 1.78271 -1.18214 1.43049
                  }
                }
              }
              JOINT lIndex1
              {
                OFFSET 7.75947 0.938293 5.60832
                CHANNELS 3 Zrotation Xrotation Yrotation
                JOINT lIndex2
                {
                  OFFSET 2.54057 -0.884171 1.56538
                  CHANNELS 3 Zrotation Xrotation Yrotation
                  End Site
                  {
                    OFFSET 1.62519 -0.234802 1.16502
                  }
                }
              }
              JOINT lMid1
              {
                OFFSET 8.24714 1.18213 3.41376
                CHANNELS 3 Zrotation Xrotation Yrotation
                JOINT lMid2
                {
                  OFFSET 3.10165 -0.590103 1.0647
                  CHANNELS 3 Zrotation Xrotation Yrotation
                  End Site
                  {
                    OFFSET 2.48547 -0.328903 0.83742
                  }
                }
              }
              JOINT lRing1
              {
                OFFSET 8.82822 0.546677 1.51678
                CHANNELS 3 Zrotation Xrotation Yrotation
                JOINT lRing2
                {
                  OFFSET 2.60934 -0.819778 -0.0198488
                  CHANNELS 3 Zrotation Xrotation Yrotation
                  End Site
                  {
                    OFFSET 2.33842 -0.294052 0.168128
                  }
                }
              }
              JOINT lPinky1
              {
                OFFSET 8.27202 -0.0477905 -0.4584
                CHANNELS 3 Zrotation Xrotation Yrotation
                JOINT lPinky2
                {
                  OFFSET 1.82734 -0.647385 -0.700984
                  CHANNELS 3 Zrotation Xrotation Yrotation
                  End Site
                  {
                    OFFSET 1.69225 -0.51767 -0.607171
                  }
                }
              }
            }
          }
        }
      }
    }
  }
  JOINT rButtock
  {
    OFFSET -8.77824 4.35084 1.2192
    CHANNELS 3 Zrotation Xrotation Yrotation
    JOINT rThigh
    {
      OFFSET 0 -1.70687 -2.19456
      CHANNELS 3 Zrotation Xrotation Yrotation
      JOINT rShin
      {
        OFFSET 0 -36.8199 0.73152
        CHANNELS 3 Zrotation Xrotation Yrotation
        JOINT rFoot
        {
          OFFSET 0.73152 -45.1104 -5.12064
          CHANNELS 3 Zrotation Xrotation Yrotation
          End Site
          {
            OFFSET -1.1221 -3.69964 12.103
          }
        }
      }
    }
  }
  JOINT lButtock
  {
    OFFSET 8.77824 4.35084 1.2192
    CHANNELS 3 Zrotation Xrotation Yrotation
    JOINT lThigh
    {
      OFFSET 0 -1.70687 -2.19456
      CHANNELS 3 Zrotation Xrotation Yrotation
      JOINT lShin
      {
        OFFSET 0 -36.8199 0.73152
        CHANNELS 3 Zrotation Xrotation Yrotation
        JOINT lFoot
        {
          OFFSET -0.73152 -45.1104 -5.12064
          CHANNELS 3 Zrotation Xrotation Yrotation
          End Site
          {
            OFFSET 1.1221 -3.69964 12.103
          }
        }
      }
    }
  }
}
MOTION
Frames:	8
Frame Time:	0.03333
11.666500000000001 76.3813 9.2597 178.875695 -29.018744 179.803861 -2.008296 12.67688 -147.973738 4.537491 4.197968 147.855139 -9.616679 27.372391 -84.729726 39.783757 8.443459 70.679605 10.033412 1.533957 17.34195 -29.072733 -10.662781 39.587443 -158.045689 13.666973 158.149834 72.160253 -47.916803 112.559083 67.279712 -52.70601 112.422598 -13.715005 40.614258 12.640225 -162.948047 30.229044 98.819346 -174.425823 -17.035104 49.549728 -30.536877 43.946252 29.607407 -7.882134 15.727122 -36.582114 -167.598318 -80.742558 176.650112 -7.538009 -27.627319 -19.755741 -15.081441 -15.099205 -38.065812 -156.335295 -1.013645 155.186644 -171.111828 -2.383802 -135.665957 -29.337373 -40.120943 -17.595435 -14.703101 -50.17965 11.688659 99.687259 -60.348897 159.855552 -9.21144 -5.980133 127.94697 172.710549 -6.138516 -139.070371 10.777163 24.572816 4.909467 31.293144 2.380212 -31.967581 7.777096 36.495266 -16.054095 172.790226 -17.728041 -117.35853 29.624688 64.696247 -52.430191 176.600046 30.147782 -157.318233 88.104678 34.00633 -106.113715 -55.119238 -20.903264 -17.893678 0.386798 -1.922894 -18.934872 44.441557 -58.434682 11.224702 -73.079475 32.275712 14.916907 78.636263 -51.126861 175.572842 42.070029 -40.457387 105.7182 -172.750268 65.373226 -97.471427 -21.917302 9.061572 -72.340219 34.770003 17.140368 -78.068264 -34.954113 -40.289992 73.506509 159.117364 -3.589692 -81.729813
11.3024 76.0167 9.2204 178.510431 -27.880096 179.888685 -5.86728 14.483143 89.294346 -8.364592 -2.102225 -90.065985 8.225723 34.181661 139.61384 -29.271335 36.721545 -141.140338 9.098452 1.510611 18.815741 -31.666637 -11.187828 38.105598 -65.378339 64.362109 63.010146 -127.324461 -17.207387 125.205359 174.911339 52.73517 -117.945913 -3.992771 14.689553 9.674358 -141.058073 47.410216 83.228236 -59.940879 -25.643025 57.539136 115.057298 -82.540132 54.023705 79.72286 -23.166626 37.407619 -170.433342 22.571254 148.056363 -154.127369 25.842216 117.894966 -105.827349 -36.148428 -121.149976 -4.422579 72.486979 36.090856 52.562922 80.261785 -42.214185 -150.310223 49.224596 -157.832408 -12.215936 -0.551158 2.897781 47.55701 55.733909 -103.347762 14.935298 -75.259642 -78.950699 13.696122 0.717867 6.133803 171.088669 -24.424869 -104.133205 105.344304 26.256634 -64.455224 141.234605 -43.40537 -134.036147 12.799859 43.196477 -13.155473 -25.722405 21.751704 -2.216433 -12.34021 -73.098939 -14.971007 97.989275 28.895274 -110.683908 74.26183 40.283424 -116.254691 2.09319 -23.654085 -12.796033 44.156491 44.888523 -74.446516 86.998813 49.744839 -10.903079 -113.62666 -21.408549 -114.353362 -50.053426 27.993313 -116.739671 157.081238 7.342736 -168.064861 -16.87812 -2.177864 -61.79989 24.41589 11.948118 -64.782361 -58.907484 -19.041927 -119.78137 124.071448 77.717163 140.824459
11.365 76.2969 10.027 179.28346 -33.233664 179.44767 -2.220409 14.488565 1.969293 -2.329948 -7.940608 1.213519 -3.62699 27.700865 -81.523812 45.243111 1.483885 75.788722 0.756396 0.007001 1.060593 -42.827969 -16.069455 39.591321 -163.431208 -47.645726 168.528224 144.846916 -17.781062 -162.54304 -152.992756 50.898684 80.625251 168.722947 -27.443334 154.540664 -175.405019 -8.369452 112.360206 59.859377 -62.532585 62.195725 -90.590466 48.005064 92.415637 -156.987135 13.518918 166.082882 -24.962411 -74.489488 -34.111894 -143.435595 -75.740286 -173.323181 16.242755 28.042007 -13.495156 -174.380035 -0.013668 -173.332361 -103.927155 -49.764074 -94.412197 -82.792097 -60.667473 -65.31222 -7.631232 18.521724 -7.093803 -54.20773 -3.100805 -38.936606 -179.179551 -5.470706 -31.147213 170.265039 -4.341878 -139.068158 26.644437 48.95194 -5.337967 -20.969137 -58.089552 -8.452147 -26.805447 -24.689333 7.92897 168.40833 -25.501823 -118.559327 137.364792 -33.083084 -146.973495 96.466067 54.739439 -108.933644 105.113208 24.454001 -121.859774 129.702452 -25.366322 -137.842298 149.504126 8.765085 157.952601 -168.868375 14.615169 63.352007 86.040825 50.888134 -6.438899 -113.955364 -18.639277 147.227621 -21.624783 -50.294996 43.979359 71.453527 -70.569267 166.445694 74.714804 -6.83614 56.612427 -60.820644 38.332608 -132.332147 -50.934736 -19.367558 -2.444441 -3.279385 34.334933 114.034557
11.3693 75.6369 11.1912 -179.824475 -32.048442 179.630016 -1.500102 13.288914 6.60322 -4.183143 -7.797762 1.71955 -0.130757 24.974712 -58.071022 37.847956 -15.824016 56.889797 3.065816 0.034075 1.273271 -48.928985 -15.952193 34.233568 -2.447251 -31.603112 -11.931475 -101.834005 -22.47283 -139.102221 -2.062866 3.645658 -77.734511 169.33342 -20.410557 155.836242 -15.035238 10.56048 -23.497876 -80.942288 26.202485 94.507177 40.671577 -81.543098 -26.93489 -165.083143 -23.914402 55.789798 -25.661348 -32.876442 -16.933345 -141.884184 57.924571 163.948279 -149.313299 39.054823 -168.126613 -130.997331 -44.615314 -164.420783 -136.29005 -33.911334 -119.687664 -98.673638 -58.240215 -82.116466 145.609817 -3.615474 -153.033861 -151.785732 -9.740695 168.210594 -1.533508 3.320025 -118.635714 15.815538 0.764595 6.111413 -167.193455 -63.237397 -101.544111 98.27841 26.115975 -93.296706 4.592596 15.997053 -6.122699 -61.803751 -58.614179 -4.676966 141.356706 -42.182386 -155.421962 163.644066 -53.463801 -136.924025 12.674663 16.016457 -43.247309 69.205247 -32.325175 123.658205 151.425346 5.375874 149.45297 -47.931792 6.528046 69.158986 81.277799 59.88143 -3.344931 -110.965885 -14.387781 -64.822556 8.395089 43.835512 42.9367 -5.128001 -17.801886 -62.285403 80.966205 13.080228 65.331316 -74.508565 45.060909 -20.446482 19.718832 42.544568 -6.299563 75.696632 -11.431218 -17.382182
11.206299999999999 74.95960000000001 12.1617 -178.725882 -31.970876 179.552699 0.112589 7.856662 -175.352589 4.818624 3.372043 -172.751629 19.394702 23.044463 62.994531 -40.82313 -2.752151 -74.347131 10.948962 0.561573 5.854455 -45.474984 -14.155174 33.005719 -8.854721 44.421454 5.363699 78.654861 -16.665071 27.101506 -172.792588 -8.290971 101.382029 167.637145 -20.890604 157.219211 -6.509147 -45.875524 -31.056096 -109.642169 -49.03543 179.196212 -133.630912 -60.77179 143.446119 19.433509 44.910509 43.074966 -31.757539 -36.181252 -23.268943 -113.143068 -51.073823 -171.132281 -46.599205 88.649258 67.120456 18.451431 65.680825 -5.546378 62.431773 74.662639 -40.120621 -37.851845 -51.070675 -37.83381 144.73302 6.67516 -148.664462 43.819364 1.886327 8.575419 -74.015433 -43.697046 135.197392 101.486702 58.727659 -75.191972 -22.51404 -54.189896 28.160687 73.961046 0.757831 -96.600961 137.392525 0.449135 -120.182561 40.615254 43.380866 -28.354019 -24.12573 -39.342197 16.196312 -7.34906 -13.732061 -16.007238 -66.141547 -72.14711 -53.549579 39.061365 41.584633 16.744156 148.863919 11.038862 147.927226 -77.864137 13.034015 57.031195 102.888896 66.483134 -14.340081 -120.988318 -3.986567 84.438161 18.753652 -48.937299 -43.866447 -100.931232 -42.096904 177.318705 102.457009 54.182924 79.576815 -135.907527 65.299697 152.22601 11.258334 -45.604734 -167.578411 -93.309509 -43.046277 7.398972
10.9026 74.3852 12.845899999999999 -178.345349 -31.89626 179.656853 0.622928 12.211941 -7.742313 -3.559028 -9.306982 20.210813 -2.542572 31.439609 -81.636629 46.633286 -0.525664 71.482255 15.624247 1.734187 12.590043 -39.133079 -11.427246 31.444111 -8.309185 45.524807 7.266437 77.549085 -17.614469 26.364128 -178.740169 -8.185262 99.587375 167.668289 -16.007045 159.231655 -5.917464 -72.502881 -31.464408 -144.698841 8.672701 147.109816 -76.49065 52.382378 89.509375 -3.391929 -4.448054 -69.585793 -37.317428 53.734465 -7.72151 -18.545418 33.978903 60.257977 -153.033903 34.797117 -177.299225 12.327838 -8.784619 3.285472 -157.833919 12.082584 -120.677811 -103.155612 -35.286523 -106.296864 -5.209862 -0.578834 -9.891474 58.142695 44.45229 -119.585274 94.465027 -84.175686 -20.314399 15.431456 -4.877271 8.088904 -163.943908 -77.949555 -105.476123 -22.579826 0.711779 29.534239 -1.428548 8.498677 -0.5677 14.368057 39.597929 -1.947193 104.246279 57.60106 -114.227314 -4.915406 9.257978 12.273056 -132.564249 -74.71472 -112.065433 57.127224 19.259965 -3.268199 148.408256 54.608144 162.72582 -155.422375 10.001308 95.763601 -98.401453 5.274388 0.642414 92.226498 -22.009016 13.916574 9.84177 51.509086 -146.881614 78.25918 -46.173222 171.277371 87.994477 14.455973 51.662809 -82.739882 33.360908 -24.336194 -3.778261 55.058286 -145.971112 -54.572634 25.812042 166.70467
10.4954 73.65509999999999 13.3024 -178.330469 -32.258197 179.652963 0.281297 7.480197 179.930352 4.314846 4.417817 -167.416786 3.886232 41.282202 -147.605461 39.500278 43.433709 118.640203 16.473437 2.064142 14.188008 -32.584507 -8.872519 29.732037 -153.601723 -35.031724 173.73619 -47.084262 6.791381 -4.391349 49.384048 1.327977 -68.157678 -178.181282 31.584155 163.099865 173.601016 30.19461 121.480405 48.073954 -56.657344 78.391176 -30.771428 57.185233 43.972986 -44.100511 -35.27034 -70.849617 -36.435382 65.558891 -7.667722 27.551671 6.957407 40.630996 -60.737179 77.787369 68.405819 -3.870718 60.723323 34.222586 -128.976017 -9.110209 -106.066454 -131.033919 45.673898 -152.382899 -22.575655 -58.113936 -4.234941 -56.709995 -23.549367 18.628836 57.481622 -81.355146 -146.448213 171.829028 -21.026667 -141.40378 165.743092 -22.852533 -126.196563 52.070599 -49.160274 98.272139 -148.027368 -75.090117 -83.865768 -173.220592 -24.799385 -99.804219 -33.52514 -39.272891 -1.240754 65.038171 59.7015 -42.833947 -33.888902 -52.625217 -29.651989 -167.258411 -27.816876 137.713878 143.907248 47.210225 164.591117 -40.352068 35.013433 57.366293 85.75564 70.23663 -3.0011 -113.335901 -6.742572 94.399751 0.169128 -47.836397 -84.59451 -64.182433 -55.036527 -149.295834 73.320198 -5.107755 29.937202 -64.837804 13.259813 68.185754 45.502543 9.804845 -140.373845 10.74037 -70.599379 100.04927
9.8924 73.0651 13.6264 -178.85347 -30.427988 179.73985 -0.057268 8.2022 -178.602567 4.081421 5.236292 -169.66266 14.18443 25.996314 48.087933 -38.354865 -16.118325 -65.355092 15.115915 1.887585 14.155257 -28.72492 -7.613012 29.131195 2.032218 5.317561 -1.752655 -107.587821 -14.662846 -168.251765 -171.20589 2.627203 -135.833561 0.039922 17.186115 15.457489 0.945271 -78.186432 -26.369375 -130.046682 -35.72328 179.406753 -130.30358 -66.999308 153.125623 -8.025106 35.965451 60.463223 168.071444 53.906662 156.235978 14.860202 -37.088575 51.536209 -155.33355 -20.508828 -170.83066 -61.009432 66.186632 50.364518 20.514049 26.376306 -17.893944 11.481938 70.011483 -14.258934 150.550993 -5.052256 -155.040086 33.475463 10.487669 25.551633 -9.772044 -9.849531 152.098108 165.274928 -0.58725 -135.605466 171.687385 -65.211531 -127.258493 99.44243 -33.708876 -158.992418 136.280665 -16.011161 -118.791815 160.936666 -29.010543 -96.539423 -6.874751 17.488984 -15.545469 44.121312 -75.733213 68.752399 -66.772733 -70.876173 -49.369379 48.934193 34.382518 19.88811 142.825126 20.791765 159.664859 -20.337289 9.997934 46.733426 130.629626 64.942737 -30.837101 -127.566409 5.932051 -90.346176 -12.258769 39.394378 74.495831 -85.065085 50.546877 5.483884 104.018624 12.02867 54.000446 -100.767441 36.770283 176.105035 3.471973 -49.545336 114.486436 154.71703 7.690272 -89.436605
